<svg width="148" height="36" viewBox="0 0 148 36" fill="none" xmlns="http://www.w3.org/2000/svg">
<path d="M0 35.6935V0H23.5V16.5L0 35.6935Z" fill="#3C4550"/>
<path d="M23.5 35.6865V19.5L47 0V35.6865H23.5Z" fill="#3C4550"/>
<path d="M70.032 11.048V16.64H76.128V18.44H70.032V24.2H76.848V26H67.848V9.248H76.848V11.048H70.032ZM82.3367 8.24V26H80.1527V8.24H82.3367ZM97.3869 12.848L89.4669 32.192H87.2109L89.8029 25.856L84.4989 12.848H86.9229L91.0509 23.504L95.1309 12.848H97.3869ZM104.238 26.216C103.23 26.216 102.326 26.048 101.526 25.712C100.726 25.36 100.094 24.88 99.6304 24.272C99.1664 23.648 98.9104 22.936 98.8624 22.136H101.118C101.182 22.792 101.486 23.328 102.03 23.744C102.59 24.16 103.318 24.368 104.214 24.368C105.046 24.368 105.702 24.184 106.182 23.816C106.662 23.448 106.902 22.984 106.902 22.424C106.902 21.848 106.646 21.424 106.134 21.152C105.622 20.864 104.83 20.584 103.758 20.312C102.782 20.056 101.982 19.8 101.358 19.544C100.75 19.272 100.222 18.88 99.7744 18.368C99.3424 17.84 99.1264 17.152 99.1264 16.304C99.1264 15.632 99.3264 15.016 99.7264 14.456C100.126 13.896 100.694 13.456 101.43 13.136C102.166 12.8 103.006 12.632 103.95 12.632C105.406 12.632 106.582 13 107.478 13.736C108.374 14.472 108.854 15.48 108.918 16.76H106.734C106.686 16.072 106.406 15.52 105.894 15.104C105.398 14.688 104.726 14.48 103.878 14.48C103.094 14.48 102.47 14.648 102.006 14.984C101.542 15.32 101.31 15.76 101.31 16.304C101.31 16.736 101.446 17.096 101.718 17.384C102.006 17.656 102.358 17.88 102.774 18.056C103.206 18.216 103.798 18.4 104.55 18.608C105.494 18.864 106.262 19.12 106.854 19.376C107.446 19.616 107.95 19.984 108.366 20.48C108.798 20.976 109.022 21.624 109.038 22.424C109.038 23.144 108.838 23.792 108.438 24.368C108.038 24.944 107.47 25.4 106.734 25.736C106.014 26.056 105.182 26.216 104.238 26.216ZM113.249 10.712C112.833 10.712 112.481 10.568 112.193 10.28C111.905 9.992 111.761 9.64 111.761 9.224C111.761 8.808 111.905 8.456 112.193 8.168C112.481 7.88 112.833 7.736 113.249 7.736C113.649 7.736 113.985 7.88 114.257 8.168C114.545 8.456 114.689 8.808 114.689 9.224C114.689 9.64 114.545 9.992 114.257 10.28C113.985 10.568 113.649 10.712 113.249 10.712ZM114.305 12.848V26H112.121V12.848H114.305ZM117.212 19.376C117.212 18.032 117.484 16.856 118.028 15.848C118.572 14.824 119.316 14.032 120.26 13.472C121.22 12.912 122.284 12.632 123.452 12.632C124.604 12.632 125.604 12.88 126.452 13.376C127.3 13.872 127.932 14.496 128.348 15.248V12.848H130.556V26H128.348V23.552C127.916 24.32 127.268 24.96 126.404 25.472C125.556 25.968 124.564 26.216 123.428 26.216C122.26 26.216 121.204 25.928 120.26 25.352C119.316 24.776 118.572 23.968 118.028 22.928C117.484 21.888 117.212 20.704 117.212 19.376ZM128.348 19.4C128.348 18.408 128.148 17.544 127.748 16.808C127.348 16.072 126.804 15.512 126.116 15.128C125.444 14.728 124.7 14.528 123.884 14.528C123.068 14.528 122.324 14.72 121.652 15.104C120.98 15.488 120.444 16.048 120.044 16.784C119.644 17.52 119.444 18.384 119.444 19.376C119.444 20.384 119.644 21.264 120.044 22.016C120.444 22.752 120.98 23.32 121.652 23.72C122.324 24.104 123.068 24.296 123.884 24.296C124.7 24.296 125.444 24.104 126.116 23.72C126.804 23.32 127.348 22.752 127.748 22.016C128.148 21.264 128.348 20.392 128.348 19.4ZM140.654 12.608C142.254 12.608 143.55 13.096 144.542 14.072C145.534 15.032 146.03 16.424 146.03 18.248V26H143.87V18.56C143.87 17.248 143.542 16.248 142.886 15.56C142.23 14.856 141.334 14.504 140.198 14.504C139.046 14.504 138.126 14.864 137.438 15.584C136.766 16.304 136.43 17.352 136.43 18.728V26H134.246V12.848H136.43V14.72C136.862 14.048 137.446 13.528 138.182 13.16C138.934 12.792 139.758 12.608 140.654 12.608Z" fill="#3C4550"/>
</svg>
